<svg width="162" height="40" viewBox="0 0 162 40" fill="none" xmlns="http://www.w3.org/2000/svg">
<path d="M58.044 28.2559V14.0719H53.124V11.4559H66.18V14.0719H61.26V28.2559H58.044ZM67.2319 28.2559V16.3519H70.1119L70.4239 18.5839C70.7119 18.0719 71.0639 17.6319 71.4799 17.2639C71.9119 16.8799 72.3999 16.5839 72.9439 16.3759C73.5039 16.1679 74.1119 16.0639 74.7679 16.0639V19.4959H73.8799C73.3839 19.4959 72.9199 19.5519 72.4879 19.6639C72.0719 19.7759 71.7119 19.9599 71.4079 20.2159C71.1039 20.4719 70.8719 20.8239 70.7119 21.2719C70.5519 21.7039 70.4719 22.2559 70.4719 22.9279V28.2559H67.2319ZM81.3287 28.5439C80.3367 28.5439 79.4887 28.3359 78.7847 27.9199C78.0967 27.5039 77.5687 26.8879 77.2007 26.0719C76.8487 25.2399 76.6727 24.2239 76.6727 23.0239V16.3519H79.8887V22.7359C79.8887 23.7279 80.0887 24.4879 80.4887 25.0159C80.8887 25.5439 81.5207 25.8079 82.3847 25.8079C82.9447 25.8079 83.4407 25.6799 83.8727 25.4239C84.3047 25.1519 84.6407 24.7759 84.8807 24.2959C85.1207 23.7999 85.2407 23.1999 85.2407 22.4959V16.3519H88.4807V28.2559H85.6247L85.3847 26.2639C85.0007 26.9519 84.4647 27.5039 83.7767 27.9199C83.0887 28.3359 82.2727 28.5439 81.3287 28.5439ZM97.4389 28.5439C96.2229 28.5439 95.1349 28.3359 94.1749 27.9199C93.2309 27.5039 92.4869 26.8959 91.9429 26.0959C91.3989 25.2959 91.1109 24.3279 91.0789 23.1919H94.5109C94.5269 23.6879 94.6549 24.1359 94.8949 24.5359C95.1349 24.9359 95.4709 25.2559 95.9029 25.4959C96.3349 25.7199 96.8469 25.8319 97.4389 25.8319C97.9349 25.8319 98.3669 25.7519 98.7349 25.5919C99.1189 25.4159 99.4149 25.1759 99.6229 24.8719C99.8469 24.5679 99.9589 24.2079 99.9589 23.7919C99.9589 23.2959 99.8309 22.8879 99.5749 22.5679C99.3349 22.2319 99.0069 21.9599 98.5909 21.7519C98.1749 21.5279 97.6949 21.3279 97.1509 21.1519C96.6229 20.9599 96.0629 20.7679 95.4709 20.5759C94.1749 20.1279 93.1829 19.5519 92.4949 18.8479C91.8069 18.1279 91.4629 17.1759 91.4629 15.9919C91.4629 14.9839 91.7029 14.1199 92.1829 13.3999C92.6629 12.6799 93.3349 12.1279 94.1989 11.7439C95.0629 11.3599 96.0469 11.1679 97.1509 11.1679C98.2869 11.1679 99.2869 11.3679 100.151 11.7679C101.015 12.1519 101.695 12.7119 102.191 13.4479C102.687 14.1839 102.951 15.0479 102.983 16.0399H99.5029C99.4869 15.6719 99.3829 15.3279 99.1909 15.0079C98.9989 14.6719 98.7269 14.4079 98.3749 14.2159C98.0229 14.0079 97.5989 13.9039 97.1029 13.9039C96.6869 13.8879 96.3109 13.9519 95.9749 14.0959C95.6389 14.2399 95.3669 14.4559 95.1589 14.7439C94.9669 15.0159 94.8709 15.3599 94.8709 15.7759C94.8709 16.1759 94.9669 16.5119 95.1589 16.7839C95.3509 17.0559 95.6229 17.2959 95.9749 17.5039C96.3269 17.6959 96.7429 17.8799 97.2229 18.0559C97.7029 18.2159 98.2229 18.3839 98.7829 18.5599C99.6309 18.8479 100.399 19.1919 101.087 19.5919C101.791 19.9759 102.351 20.4799 102.767 21.1039C103.183 21.7279 103.391 22.5519 103.391 23.5759C103.391 24.4559 103.159 25.2719 102.695 26.0239C102.247 26.7759 101.583 27.3839 100.703 27.8479C99.8229 28.3119 98.7349 28.5439 97.4389 28.5439ZM111.83 28.5439C110.614 28.5439 109.534 28.2879 108.59 27.7759C107.662 27.2639 106.934 26.5439 106.406 25.6159C105.878 24.6879 105.614 23.6239 105.614 22.4239C105.614 21.1759 105.87 20.0799 106.382 19.1359C106.91 18.1759 107.638 17.4239 108.566 16.8799C109.51 16.3359 110.606 16.0639 111.854 16.0639C113.038 16.0639 114.078 16.3199 114.974 16.8319C115.886 17.3439 116.59 18.0479 117.086 18.9439C117.598 19.8239 117.854 20.8239 117.854 21.9439C117.854 22.1039 117.854 22.2879 117.854 22.4959C117.854 22.6879 117.838 22.8879 117.806 23.0959H107.942V21.1039H114.566C114.518 20.3839 114.238 19.7999 113.726 19.3519C113.23 18.9039 112.606 18.6799 111.854 18.6799C111.294 18.6799 110.782 18.8079 110.318 19.0639C109.854 19.3039 109.486 19.6719 109.214 20.1679C108.942 20.6639 108.806 21.2879 108.806 22.0399V22.7359C108.806 23.3759 108.934 23.9359 109.19 24.4159C109.446 24.8959 109.798 25.2639 110.246 25.5199C110.71 25.7759 111.23 25.9039 111.806 25.9039C112.398 25.9039 112.894 25.7759 113.294 25.5199C113.694 25.2479 113.998 24.9039 114.206 24.4879H117.518C117.278 25.2399 116.894 25.9279 116.366 26.5519C115.838 27.1599 115.19 27.6479 114.422 28.0159C113.654 28.3679 112.79 28.5439 111.83 28.5439ZM120.435 28.2559V16.3519H123.291L123.531 18.3439C123.899 17.6559 124.427 17.1039 125.115 16.6879C125.803 16.2719 126.627 16.0639 127.587 16.0639C128.579 16.0639 129.419 16.2799 130.107 16.7119C130.795 17.1279 131.323 17.7439 131.691 18.5599C132.059 19.3759 132.243 20.3839 132.243 21.5839V28.2559H129.003V21.8719C129.003 20.8799 128.803 20.1199 128.403 19.5919C128.003 19.0639 127.371 18.7999 126.507 18.7999C125.963 18.7999 125.475 18.9359 125.043 19.2079C124.611 19.4639 124.275 19.8399 124.035 20.3359C123.795 20.8159 123.675 21.4079 123.675 22.1119V28.2559H120.435ZM140.121 28.5439C139.065 28.5439 138.129 28.3679 137.313 28.0159C136.513 27.6639 135.865 27.1839 135.369 26.5759C134.889 25.9519 134.609 25.2479 134.529 24.4639H137.769C137.833 24.7519 137.969 25.0239 138.177 25.2799C138.385 25.5199 138.649 25.7119 138.969 25.8559C139.289 25.9999 139.657 26.0719 140.073 26.0719C140.521 26.0719 140.873 26.0159 141.129 25.9039C141.401 25.7759 141.601 25.6159 141.729 25.4239C141.873 25.2159 141.945 25.0079 141.945 24.7999C141.945 24.4799 141.841 24.2399 141.633 24.0799C141.441 23.9039 141.161 23.7599 140.793 23.6479C140.425 23.5359 139.985 23.4159 139.473 23.2879C138.945 23.1599 138.409 23.0159 137.865 22.8559C137.337 22.6959 136.849 22.4959 136.401 22.2559C135.953 21.9999 135.593 21.6799 135.321 21.2959C135.049 20.9119 134.913 20.4239 134.913 19.8319C134.913 19.1279 135.105 18.4959 135.489 17.9359C135.889 17.3599 136.449 16.9039 137.169 16.5679C137.905 16.2319 138.777 16.0639 139.785 16.0639C141.225 16.0639 142.369 16.3919 143.217 17.0479C144.081 17.7039 144.585 18.6079 144.729 19.7599H141.681C141.601 19.3759 141.393 19.0799 141.057 18.8719C140.737 18.6639 140.313 18.5599 139.785 18.5599C139.225 18.5599 138.793 18.6639 138.489 18.8719C138.201 19.0799 138.057 19.3359 138.057 19.6399C138.057 19.8639 138.161 20.0559 138.369 20.2159C138.577 20.3759 138.865 20.5199 139.233 20.6479C139.617 20.7599 140.057 20.8719 140.553 20.9839C141.417 21.1919 142.193 21.4159 142.881 21.6559C143.569 21.8799 144.121 22.2159 144.537 22.6639C144.969 23.1119 145.185 23.7679 145.185 24.6319C145.201 25.3679 145.001 26.0319 144.585 26.6239C144.169 27.2159 143.585 27.6879 142.833 28.0399C142.081 28.3759 141.177 28.5439 140.121 28.5439ZM153.712 28.5439C152.496 28.5439 151.416 28.2879 150.472 27.7759C149.544 27.2639 148.816 26.5439 148.288 25.6159C147.76 24.6879 147.496 23.6239 147.496 22.4239C147.496 21.1759 147.752 20.0799 148.264 19.1359C148.792 18.1759 149.52 17.4239 150.448 16.8799C151.392 16.3359 152.488 16.0639 153.736 16.0639C154.92 16.0639 155.96 16.3199 156.856 16.8319C157.768 17.3439 158.472 18.0479 158.968 18.9439C159.48 19.8239 159.736 20.8239 159.736 21.9439C159.736 22.1039 159.736 22.2879 159.736 22.4959C159.736 22.6879 159.72 22.8879 159.688 23.0959H149.824V21.1039H156.448C156.4 20.3839 156.12 19.7999 155.608 19.3519C155.112 18.9039 154.488 18.6799 153.736 18.6799C153.176 18.6799 152.664 18.8079 152.2 19.0639C151.736 19.3039 151.368 19.6719 151.096 20.1679C150.824 20.6639 150.688 21.2879 150.688 22.0399V22.7359C150.688 23.3759 150.816 23.9359 151.072 24.4159C151.328 24.8959 151.68 25.2639 152.128 25.5199C152.592 25.7759 153.112 25.9039 153.688 25.9039C154.28 25.9039 154.776 25.7759 155.176 25.5199C155.576 25.2479 155.88 24.9039 156.088 24.4879H159.4C159.16 25.2399 158.776 25.9279 158.248 26.5519C157.72 27.1599 157.072 27.6479 156.304 28.0159C155.536 28.3679 154.672 28.5439 153.712 28.5439Z" fill="#072847"/>
<path d="M32.7764 3.32977C41.4603 3.33002 48.5 10.3703 48.5 19.0544C48.4997 27.7382 41.4602 34.7778 32.7764 34.778C24.0924 34.7779 17.052 27.7383 17.0517 19.0544C17.0517 10.3702 24.0922 3.32989 32.7764 3.32977ZM37.2021 8.31512C35.0822 7.35226 32.7386 6.98977 30.4267 7.2663L30.7314 9.80829C32.5782 9.58747 34.4501 9.87793 36.1435 10.6472C37.837 11.4164 39.2872 12.6354 40.3359 14.1716C41.3845 15.7077 41.9921 17.5019 42.0918 19.3591C42.1914 21.2165 41.7788 23.0662 40.9004 24.7057L43.1582 25.9147C44.2578 23.8623 44.7731 21.5474 44.6484 19.2224C44.5237 16.8972 43.764 14.6504 42.4512 12.7272C41.1383 10.8041 39.3222 9.27814 37.2021 8.31512ZM33.4521 12.7018C31.9409 12.0155 30.2702 11.7567 28.6221 11.9538L28.9287 14.5173C30.108 14.3763 31.3033 14.5612 32.3848 15.0524C33.4663 15.5437 34.3927 16.3223 35.0625 17.3034C35.7322 18.2845 36.12 19.4307 36.1836 20.6169C36.2472 21.8031 35.9838 22.9839 35.4228 24.0309L37.6982 25.2497C38.4822 23.7864 38.8496 22.1359 38.7607 20.4782C38.6718 18.8207 38.1302 17.2193 37.1943 15.8483C36.2583 14.4772 34.9636 13.3884 33.4521 12.7018Z" fill="#072847"/>
<path d="M4.74512 12.1406H15.9492C15.2309 13.557 14.7204 15.0963 14.457 16.7188H4.94629V23.0107H14.7002C15.0978 24.6435 15.7488 26.1769 16.6104 27.5664H4.74512V39.7441H0.5V0.255859H4.74512V12.1406ZM23.4316 33.5977C24.7579 34.2089 26.1828 34.6422 27.6768 34.8652V39.7441H23.4316V33.5977ZM27.6768 3.66504C26.1829 3.88808 24.7578 4.32149 23.4316 4.93262V0.255859H27.6768V3.66504Z" fill="#072847"/>
</svg>
