<svg xmlns="http://www.w3.org/2000/svg" width="35" height="31" fill="none"><path fill="#fff" d="M26.652 20.582a5.567 5.567 0 0 1-1.253-3.544v-2.935c0-4.26-3.186-7.768-7.303-8.305V4.33a1.039 1.039 0 0 0-2.076 0v1.503c-4.117.502-7.303 4.046-7.303 8.306v2.935c0 1.289-.43 2.542-1.253 3.544l-1.289 1.576a2.681 2.681 0 0 0-.358 2.9c.465.966 1.396 1.574 2.47 1.574h4.01c.179 2.399 2.22 4.332 4.725 4.332 2.506 0 4.547-1.933 4.761-4.367h4.01c1.074 0 2.005-.61 2.47-1.576a2.681 2.681 0 0 0-.358-2.9l-1.253-1.575Zm-9.63 8.306a2.691 2.691 0 0 1-2.649-2.256h5.298a2.691 2.691 0 0 1-2.649 2.256Zm9.38-4.69a.602.602 0 0 1-.573.358H8.25a.602.602 0 0 1-.572-.358c-.036-.107-.144-.394.071-.68l1.289-1.575a7.668 7.668 0 0 0 1.718-4.833v-2.935c0-3.473 2.828-6.265 6.265-6.265s6.265 2.828 6.265 6.265v2.935c0 1.754.608 3.473 1.718 4.833l1.289 1.575c.25.25.143.537.107.68ZM24.79 3.972c-.465-.358-1.11-.25-1.467.179-.358.465-.25 1.11.179 1.468a11.222 11.222 0 0 1 3.83 5.656c.143.465.537.752 1.002.752.108 0 .18 0 .287-.036a1 1 0 0 0 .716-1.289 12.64 12.64 0 0 0-4.547-6.73ZM6.712 11.275c.609-2.22 1.969-4.224 3.83-5.656a1.034 1.034 0 0 0 .18-1.468 1.033 1.033 0 0 0-1.468-.18 12.905 12.905 0 0 0-4.583 6.731c-.143.573.18 1.146.716 1.289a.788.788 0 0 0 .287.036c.465 0 .895-.287 1.038-.752ZM34.026 11.096A17.212 17.212 0 0 0 27.225.213c-.466-.358-1.11-.25-1.468.215-.358.465-.25 1.11.215 1.468a15.048 15.048 0 0 1 5.978 9.558c.107.501.537.86 1.038.86h.18c.572-.108.93-.645.858-1.218ZM8.072 1.896c.466-.358.573-1.003.215-1.468C7.93-.038 7.285-.145 6.82.213A17.212 17.212 0 0 0 .018 11.096c-.108.573.286 1.11.859 1.217h.179c.501 0 .93-.358 1.038-.86.68-3.83 2.828-7.23 5.978-9.557Z"/></svg>