<svg xmlns="http://www.w3.org/2000/svg" width="31" height="32" fill="none"><path fill="#fff" d="M4.362 1.51v3.497A3.874 3.874 0 0 0 1 8.84a3.885 3.885 0 0 0 3.362 3.845V30.49a.51.51 0 1 0 1.017 0V12.684A3.877 3.877 0 0 0 8.73 8.84a3.866 3.866 0 0 0-3.35-3.832V1.51a.51.51 0 1 0-1.018 0Zm3.351 7.33c0 1.578-1.275 2.861-2.842 2.861a2.864 2.864 0 0 1-2.854-2.86c0-1.578 1.28-2.85 2.854-2.85a2.846 2.846 0 0 1 2.842 2.85ZM14.991 1.51v17.806a3.874 3.874 0 0 0-3.362 3.833 3.885 3.885 0 0 0 3.362 3.844v3.497a.51.51 0 1 0 1.018 0v-3.498a3.88 3.88 0 0 0 3.362-3.844 3.87 3.87 0 0 0-3.362-3.833V1.51a.51.51 0 1 0-1.018 0Zm3.362 21.639a2.86 2.86 0 0 1-2.853 2.86 2.86 2.86 0 0 1-2.853-2.86c0-1.577 1.28-2.85 2.853-2.85a2.855 2.855 0 0 1 2.853 2.85ZM26.13 1a.51.51 0 0 0-.51.51v6.612a3.88 3.88 0 0 0-3.361 3.844 3.88 3.88 0 0 0 3.362 3.843v14.68a.51.51 0 1 0 1.017 0V15.81A3.88 3.88 0 0 0 30 11.966a3.881 3.881 0 0 0-3.362-3.844V1.51A.51.51 0 0 0 26.13 1Zm2.853 10.966a2.86 2.86 0 0 1-2.854 2.86 2.86 2.86 0 0 1 0-5.722 2.86 2.86 0 0 1 2.854 2.862Z"/><path fill="#fff" d="m13.578 20.828-.356.226-.354.225-6.105-9.692.711-.45 6.104 9.691ZM24.129 14.334l-5.542 6.63-.322-.27-.322-.271 5.542-6.632.644.543Z"/><path fill="#fff" d="M17.854 23.148a2.355 2.355 0 0 0-2.354-2.35 2.351 2.351 0 0 0-2.354 2.35A2.361 2.361 0 0 0 15.5 25.51a2.36 2.36 0 0 0 2.354-2.362Zm1 0A3.36 3.36 0 0 1 15.5 26.51a3.361 3.361 0 0 1-2.995-4.868l-.009-.015a3.338 3.338 0 0 0-.366 1.521 3.385 3.385 0 0 0 2.927 3.35l.434.057v3.935c0 .007.005.01.009.01.004 0 .009-.003.009-.01v-3.936l.434-.057a3.38 3.38 0 0 0 2.927-3.349c0-.607-.163-1.176-.444-1.668l-.037-.03c.294.498.464 1.079.465 1.698Zm9.628-11.182a2.36 2.36 0 0 0-2.352-2.362 2.361 2.361 0 0 0 0 4.722 2.36 2.36 0 0 0 2.352-2.36ZM7.212 8.84A2.346 2.346 0 0 0 4.87 6.49a2.351 2.351 0 0 0-2.352 2.35A2.364 2.364 0 0 0 4.87 11.2a2.355 2.355 0 0 0 2.343-2.36Zm1 0c0 .64-.18 1.24-.49 1.75l.01.016a3.366 3.366 0 0 0-2.418-5.104l-.435-.058V1.51c0-.007-.005-.01-.009-.01-.003 0-.008.003-.008.01v3.935l-.434.058A3.375 3.375 0 0 0 1.5 8.84c0 1.707 1.28 3.13 2.928 3.348l.434.057V30.49c0 .007.005.01.008.01.004 0 .009-.003.009-.01V12.246l.434-.058a3.32 3.32 0 0 0 1.036-.32l-.007-.01c-.444.22-.944.343-1.472.343a3.364 3.364 0 0 1-3.352-3.36A3.351 3.351 0 0 1 4.87 5.49a3.346 3.346 0 0 1 3.343 3.35ZM15.5 1.5c-.004 0-.009.003-.009.01v18.244l-.434.057a3.35 3.35 0 0 0-1.256.434l.008.01A3.34 3.34 0 0 1 15.5 19.8c.682 0 1.317.204 1.848.556l.011-.014a3.363 3.363 0 0 0-1.416-.53l-.434-.058V1.51c0-.007-.005-.01-.009-.01Zm10.63 0c-.004 0-.009.003-.009.01v7.05l-.434.057a3.381 3.381 0 0 0-2.579 4.845l.012-.015a3.361 3.361 0 0 1 3.01-4.843 3.36 3.36 0 0 1 3.352 3.362 3.36 3.36 0 0 1-3.352 3.36 3.329 3.329 0 0 1-1.76-.502l-.01.011c.396.246.845.415 1.326.478l.435.058v15.12c0 .006.005.009.009.009.003 0 .008-.003.008-.01V15.371l.434-.058a3.38 3.38 0 0 0 2.928-3.347c0-1.713-1.28-3.13-2.928-3.349l-.434-.057V1.51c0-.007-.005-.01-.008-.01Zm1.008 6.207a4.382 4.382 0 0 1 3.362 4.259 4.38 4.38 0 0 1-3.362 4.258V30.49a1.009 1.009 0 1 1-2.017 0V16.224a4.351 4.351 0 0 1-1.408-.614l-4.447 5.322c.384.649.604 1.406.604 2.216a4.38 4.38 0 0 1-3.361 4.258v3.084a1.01 1.01 0 1 1-2.018 0v-3.084a4.386 4.386 0 0 1-3.361-4.258c0-.917.284-1.768.768-2.47L6.885 12.72a4.322 4.322 0 0 1-1.006.378V30.49a1.01 1.01 0 1 1-2.017 0V13.1A4.386 4.386 0 0 1 .5 8.84a4.374 4.374 0 0 1 3.362-4.25V1.51a1.009 1.009 0 1 1 2.017 0v3.083a4.366 4.366 0 0 1 2.43 6.932l4.958 7.87a4.353 4.353 0 0 1 1.224-.495V1.51a1.01 1.01 0 1 1 2.018 0V18.9c.544.128 1.049.36 1.494.67l4.42-5.288a4.354 4.354 0 0 1-.664-2.316 4.381 4.381 0 0 1 3.362-4.259V1.51a1.01 1.01 0 1 1 2.017 0v6.197Z"/></svg>