<svg xmlns="http://www.w3.org/2000/svg" width="33" height="28" fill="none"><path fill="#fff" d="M1.037 1.013a.024.024 0 0 0-.005-.007A.024.024 0 0 0 1.025 1L1.02 1l-.007.001c-.002 0-.004.003-.006.005L1 1.012 1 1.02v25.96l.002.01a.02.02 0 0 0 .006.007l.005.002.007.001h30.115l.007-.001a.02.02 0 0 0 .006-.005.024.024 0 0 0 .005-.007l.001-.006v-.006a.022.022 0 0 0-.006-.007.024.024 0 0 0-.006-.005l-.007-.001H1.038V1.02a.032.032 0 0 0 0-.007Zm25.648 6.614a2.58 2.58 0 0 1 3.156-1.822 2.581 2.581 0 0 1 1.823 3.157 2.58 2.58 0 0 1-3.157 1.822 2.301 2.301 0 0 1-.382-.141l-4.194 3.852c.166.47.204.994.064 1.516a2.58 2.58 0 0 1-3.155 1.822 2.58 2.58 0 0 1-1.884-2.849l-4.104-2.505a2.556 2.556 0 0 1-2.319.346l-5.096 5.759c.254.53.34 1.149.173 1.768a2.58 2.58 0 0 1-3.157 1.82 2.58 2.58 0 0 1-1.822-3.155 2.58 2.58 0 0 1 3.157-1.823c.042.012.082.027.122.04l5.12-5.782a2.546 2.546 0 0 1-.155-1.731 2.58 2.58 0 0 1 3.157-1.823 2.578 2.578 0 0 1 1.882 2.84l4.109 2.51c.6-.428 1.378-.601 2.15-.394.136.036.262.084.379.14l4.196-3.855a2.545 2.545 0 0 1-.063-1.512Zm2.897-.856a1.579 1.579 0 0 0-1.93 1.116c-.107.397-.047.801.137 1.145l.182.342-5.008 4.6-.284.261-.324-.21a1.562 1.562 0 0 0-.44-.205 1.57 1.57 0 0 0-1.502.399l-.278.268-5.366-3.276.097-.361c.008-.029.017-.051.024-.068a1.579 1.579 0 0 0-1.117-1.917 1.579 1.579 0 0 0-1.931 1.115c-.12.446-.03.9.212 1.269l.208.32-6.09 6.878-.343-.172a1.579 1.579 0 0 0-2.231 1.001 1.578 1.578 0 0 0 1.115 1.93 1.578 1.578 0 0 0 1.93-1.114 1.567 1.567 0 0 0-.229-1.292l-.218-.322 6.09-6.88.346.183c.107.057.215.1.324.13a1.57 1.57 0 0 0 1.505-.403l.277-.27.332.202 4.713 2.878.335.205-.119.375a.76.76 0 0 1-.017.045l-.002.004a1.579 1.579 0 0 0 1.119 1.92 1.578 1.578 0 0 0 1.93-1.116 1.564 1.564 0 0 0-.137-1.147l-.184-.342 5.007-4.599.283-.26.325.207c.15.097.295.167.444.207a1.579 1.579 0 0 0 1.93-1.115 1.579 1.579 0 0 0-1.115-1.93ZM3.632 19.285a1.542 1.542 0 0 1 2.31-.902l.121.085.035.027.029.032c.016.018.03.034.037.044l.009.012c.38.365.587.925.433 1.498a1.542 1.542 0 0 1-1.885 1.089 1.541 1.541 0 0 1-1.088-1.885Zm1.628-.12a.539.539 0 1 0 .38.658.53.53 0 0 0-.164-.526.714.714 0 0 1-.058-.059.53.53 0 0 0-.158-.074Zm14.76-4.22a1.54 1.54 0 0 1 1.883-1.089 1.542 1.542 0 0 1 1.09 1.886 1.54 1.54 0 0 1-1.885 1.088 1.542 1.542 0 0 1-1.088-1.886Zm1.625-.122a.54.54 0 0 0-.278 1.04.538.538 0 0 0 .277-1.04ZM11.877 9.99a1.541 1.541 0 0 1 1.885-1.088 1.54 1.54 0 0 1 1.088 1.884 1.54 1.54 0 0 1-1.884 1.089 1.541 1.541 0 0 1-1.089-1.885Zm1.625-.12a.538.538 0 1 0-.276 1.038.538.538 0 0 0 .276-1.039Zm14.187-1.974a1.54 1.54 0 0 1 1.884-1.088 1.54 1.54 0 0 1 1.088 1.883 1.542 1.542 0 0 1-1.886 1.09 1.54 1.54 0 0 1-1.086-1.885Zm1.625-.122a.539.539 0 0 0-.28 1.04.539.539 0 0 0 .28-1.04ZM2.038 25.962h29.097a1.02 1.02 0 0 1 .104 2.033l-.104.005H1.018c-.21 0-.407-.064-.57-.175H.45A1.017 1.017 0 0 1 0 26.981V1.02a1.02 1.02 0 1 1 2.038 0v24.942Z"/></svg>