<svg width="6217" height="1309" viewBox="0 0 6217 1309" fill="none" xmlns="http://www.w3.org/2000/svg">
<circle cx="654.5" cy="654.5" r="654.5" fill="#F68227"/>
<path d="M654 551C688.794 551 717 579.206 717 614C717 643.265 697.045 667.868 670 674.948V1094H638V674.948C610.955 667.868 591 643.265 591 614C591 579.206 619.206 551 654 551Z" fill="#072847"/>
<path d="M537.253 863.741C523.006 863.134 439.576 795.515 413.733 742.894C387.89 690.273 381.273 630.74 394.964 574.017C408.655 517.294 441.845 466.731 489.113 430.585C536.382 394.438 594.937 374.844 655.218 375.001C715.499 375.158 773.944 395.057 821.01 431.449C868.076 467.841 900.983 518.576 914.358 575.369C927.732 632.163 920.784 691.66 894.647 744.146C868.511 796.632 798.5 863.741 770.454 864.348C742.409 864.955 748.729 844.851 756.364 836.175C764 827.5 842.505 776.687 865.466 730.579C888.426 684.471 894.53 632.204 882.781 582.312C871.032 532.419 842.124 487.849 800.777 455.879C759.43 423.91 708.086 406.429 655.131 406.291C602.175 406.153 550.735 423.366 509.21 455.12C467.685 486.874 438.529 531.293 426.501 581.123C414.474 630.954 420.286 683.252 442.989 729.479C465.692 775.706 542.501 827.784 551.5 835.642C560.5 843.5 551.5 864.348 537.253 863.741Z" fill="white"/>
<path d="M843.033 1002.57C871 1003.13 992.839 890.81 1031.91 805.891C1070.99 720.971 1080.32 625.366 1058.41 534.492C1036.5 443.619 984.622 362.773 911.141 304.992C837.66 247.21 746.86 215.862 653.382 216C559.905 216.139 469.198 247.758 395.889 305.757C322.58 363.756 270.942 444.756 249.301 535.694C227.661 626.633 237.279 722.21 276.606 807.013C315.932 891.816 441.64 1003.26 466.07 1003.13C490.5 1003 488 978.5 481.521 972.618C475.041 966.736 343.727 870.455 307.634 792.624C271.541 714.793 262.713 627.074 282.574 543.612C302.435 460.15 349.828 385.81 417.11 332.579C484.391 279.349 567.641 250.33 653.433 250.202C739.226 250.075 822.561 278.846 890 331.877C957.44 384.908 1005.05 459.107 1025.16 542.509C1045.27 625.912 1036.7 713.656 1000.84 791.594C964.981 869.532 903.915 933.12 827.491 972.104C827.491 972.104 815.065 1002.01 843.033 1002.57Z" fill="white"/>
<path d="M2429.84 504.491H2390.86C2389.05 474.881 2384.52 450.409 2377.27 431.072C2370.62 411.131 2360.95 395.42 2348.26 383.939C2335.57 371.854 2320.16 363.696 2302.04 359.467C2283.91 354.632 2262.76 352.215 2238.59 352.215C2215.02 352.215 2195.99 352.82 2181.49 354.028C2167.59 354.632 2156.71 356.143 2148.86 358.56C2141.6 360.373 2136.77 363.092 2134.35 366.718C2131.94 370.343 2130.73 374.875 2130.73 380.314V855.267C2130.73 874.604 2131.94 891.221 2134.35 905.119C2137.37 919.018 2143.11 930.499 2151.57 939.563C2160.03 948.022 2172.42 954.669 2188.74 959.503C2205.05 963.733 2226.5 966.15 2253.09 966.755V1003.01H1873.31V966.755C1900.5 966.15 1922.26 963.733 1938.57 959.503C1954.89 954.669 1967.27 948.022 1975.73 939.563C1984.8 930.499 1990.54 919.018 1992.95 905.119C1995.98 891.221 1997.49 874.604 1997.49 855.267V380.314C1997.49 374.875 1996.28 370.343 1993.86 366.718C1992.05 363.092 1987.82 360.373 1981.17 358.56C1974.52 356.143 1964.86 354.632 1952.17 354.028C1940.08 352.82 1924.07 352.215 1904.13 352.215C1882.37 352.215 1861.53 353.424 1841.59 355.841C1821.64 357.654 1804.12 363.696 1789.01 373.969C1773.91 383.637 1761.52 398.744 1751.85 419.289C1742.79 439.23 1737.95 467.63 1737.35 504.491H1702L1711.06 305.083H2420.78L2429.84 504.491Z" fill="#072847"/>
<path d="M2646.38 862.519C2646.38 886.085 2647.28 904.817 2649.1 918.715C2651.51 932.009 2656.05 942.282 2662.69 949.533C2669.34 956.784 2679.01 961.618 2691.7 964.035C2704.39 965.848 2721.31 966.755 2742.46 966.755V1003.01H2439.72V966.755C2457.85 965.546 2472.35 963.733 2483.22 961.316C2494.1 958.899 2502.26 954.065 2507.7 946.814C2513.14 939.563 2516.46 929.29 2517.67 915.996C2519.48 902.098 2520.39 883.668 2520.39 860.706V750.125C2520.39 712.66 2519.48 682.749 2517.67 660.391C2515.86 638.034 2511.93 620.812 2505.88 608.727C2499.84 596.641 2491.08 588.786 2479.6 585.16C2468.72 580.93 2454.22 578.815 2436.09 578.815V547.091L2617.37 513.555L2631.87 617.791H2635.5C2651.82 585.764 2673.27 560.385 2699.85 541.653C2726.44 522.921 2754.54 513.555 2784.15 513.555C2807.11 513.555 2825.84 519.295 2840.35 530.776C2854.85 542.257 2862.1 556.76 2862.1 574.283C2862.1 593.62 2856.36 609.935 2844.88 623.229C2834 636.523 2818.89 643.17 2799.56 643.17C2790.49 643.17 2782.34 641.357 2775.09 637.731C2767.83 634.106 2761.19 630.178 2755.14 625.948C2749.71 621.114 2743.97 616.884 2737.92 613.259C2732.48 609.029 2726.74 606.914 2720.7 606.914C2709.22 606.914 2698.34 614.467 2688.07 629.574C2677.8 644.68 2669.34 664.923 2662.69 690.303C2657.86 708.431 2653.93 728.976 2650.91 751.938C2647.89 774.296 2646.38 796.654 2646.38 819.011V862.519Z" fill="#072847"/>
<path d="M3285.43 671.268C3285.43 647.097 3284.83 628.063 3283.62 614.165C3282.41 599.663 3279.09 588.786 3273.65 581.535C3268.21 573.679 3260.05 568.543 3249.18 566.126C3238.9 563.104 3224.7 560.687 3206.57 558.875V522.619H3411.42V797.258C3411.42 834.118 3411.72 863.123 3412.33 884.272C3413.54 904.817 3415.35 920.226 3417.77 930.499C3419.58 938.354 3421.69 944.699 3424.11 949.533C3426.53 953.763 3430.46 957.388 3435.89 960.41C3441.33 962.827 3448.58 964.64 3457.65 965.848C3467.32 966.452 3479.7 966.755 3494.81 966.755V1002.1L3314.44 1012.98L3304.47 932.311H3300.84C3285.13 957.691 3263.07 977.329 3234.67 991.227C3206.27 1005.13 3174.55 1012.07 3139.5 1012.07C3074.84 1012.07 3025.6 989.112 2991.76 943.188C2965.77 908.141 2952.78 858.289 2952.78 793.632V671.268C2952.78 646.493 2952.18 627.157 2950.97 613.259C2949.76 598.756 2946.44 587.879 2941 580.628C2936.17 573.377 2928.61 568.543 2918.34 566.126C2908.07 563.104 2893.87 560.687 2875.74 558.875V522.619H3078.77V779.13C3078.77 840.161 3086.33 884.574 3101.43 912.371C3116.54 939.563 3140.71 953.159 3173.94 953.159C3209.6 953.159 3237.09 936.843 3256.43 904.213C3275.76 872.791 3285.43 826.565 3285.43 765.534V671.268Z" fill="#072847"/>
<path d="M3555.52 771.879H3590.87C3599.33 829.284 3622.3 874.604 3659.76 907.839C3697.22 940.469 3743.45 956.784 3798.44 956.784C3820.8 956.784 3841.34 954.065 3860.07 948.627C3878.81 943.188 3894.82 935.635 3908.11 925.967C3921.41 915.694 3931.68 903.911 3938.93 890.617C3946.18 876.719 3949.81 861.31 3949.81 844.391C3949.81 829.888 3947.39 817.501 3942.56 807.228C3938.33 796.351 3929.87 786.079 3917.18 776.411C3904.49 766.138 3886.96 755.866 3864.61 745.593C3842.85 735.32 3814.45 723.537 3779.41 710.243C3708.71 683.051 3656.44 651.63 3622.6 615.978C3588.76 579.722 3571.84 537.121 3571.84 488.175C3571.84 459.775 3577.28 433.791 3588.15 410.225C3599.03 386.659 3614.14 366.416 3633.47 349.496C3653.42 332.577 3676.98 319.585 3704.17 310.521C3731.97 300.853 3762.49 296.019 3795.72 296.019C3826.54 296.019 3855.54 300.853 3882.73 310.521C3909.93 320.189 3936.82 334.692 3963.4 354.028L3979.72 308.708H4001.47L4011.44 504.491H3976.09C3961.59 454.941 3938.93 417.174 3908.11 391.191C3877.3 364.603 3841.64 351.309 3801.16 351.309C3763.69 351.309 3733.18 360.675 3709.61 379.407C3686.65 397.535 3675.17 421.102 3675.17 450.107C3675.17 462.796 3677.28 474.277 3681.51 484.55C3685.74 494.218 3693.6 503.584 3705.08 512.648C3716.56 521.712 3732.27 531.078 3752.21 540.747C3772.15 549.811 3797.84 560.083 3829.26 571.564C3871.56 587.879 3907.51 604.497 3937.12 621.416C3967.33 637.731 3991.8 655.557 4010.54 674.894C4029.87 693.626 4044.07 713.567 4053.14 734.716C4062.2 755.866 4066.73 779.13 4066.73 804.509C4066.73 835.327 4060.09 863.425 4046.79 888.804C4033.5 914.183 4014.77 935.937 3990.6 954.065C3967.03 972.193 3938.63 986.393 3905.39 996.666C3872.76 1006.94 3836.51 1012.07 3796.63 1012.07C3760.37 1012.07 3727.74 1007.24 3698.74 997.572C3669.73 987.3 3639.82 970.984 3609 948.627L3590.87 1003.01H3569.12L3555.52 771.879Z" fill="#F68227"/>
<path d="M4597.06 918.715C4542.07 980.955 4473.48 1012.07 4391.3 1012.07C4353.84 1012.07 4319.7 1006.33 4288.88 994.853C4258.67 982.768 4232.68 966.15 4210.93 945.001C4189.18 923.247 4172.26 897.566 4160.17 867.957C4148.09 838.348 4142.04 805.415 4142.04 769.159C4142.04 731.695 4148.39 697.554 4161.08 666.736C4173.77 635.314 4191.59 608.424 4214.55 586.067C4238.12 563.104 4265.62 545.279 4297.04 532.589C4329.06 519.899 4364.11 513.555 4402.18 513.555C4466.23 513.555 4516.08 530.776 4551.74 565.219C4587.39 599.663 4605.21 648.004 4605.21 710.243C4605.21 719.912 4603.7 725.954 4600.68 728.371C4597.66 730.184 4589.2 731.091 4575.3 731.091H4283.44C4281.02 736.529 4279.82 746.499 4279.82 761.002C4279.82 820.22 4292.51 867.051 4317.88 901.494C4343.87 935.937 4378.92 953.159 4423.03 953.159C4448.41 953.159 4473.48 947.418 4498.26 935.937C4523.64 924.456 4548.11 908.141 4571.68 886.991L4597.06 918.715ZM4421.21 680.332C4445.38 680.332 4460.79 679.124 4467.44 676.707C4474.69 673.685 4478.32 667.038 4478.32 656.766C4478.32 630.178 4470.76 608.424 4455.66 591.505C4440.55 574.586 4421.52 566.126 4398.55 566.126C4372.57 566.126 4349.31 577.003 4328.76 598.756C4308.82 619.906 4295.83 647.098 4289.79 680.332H4421.21Z" fill="#F68227"/>
<path d="M4870.75 855.267C4870.75 880.042 4871.36 899.681 4872.57 914.183C4874.38 928.082 4877.7 938.958 4882.54 946.814C4887.98 954.065 4895.83 958.899 4906.1 961.316C4916.98 963.733 4931.48 965.546 4949.61 966.755V1003.01H4664.09V966.755C4681.62 965.546 4695.52 963.733 4705.79 961.316C4716.67 958.899 4724.82 954.065 4730.26 946.814C4736.3 939.563 4740.23 929.29 4742.04 915.996C4743.86 902.702 4744.76 884.574 4744.76 861.612V748.312C4744.76 712.66 4744.16 683.958 4742.95 662.204C4741.74 639.846 4740.23 624.74 4738.42 616.884C4736.61 609.029 4734.19 602.684 4731.17 597.85C4728.15 592.411 4723.61 588.484 4717.57 586.067C4711.53 583.045 4703.98 581.232 4694.91 580.628C4685.85 579.42 4674.37 578.815 4660.47 578.815V547.998L4835.4 513.555L4847.19 593.318H4850.81C4870.75 567.939 4894.32 548.3 4921.51 534.402C4948.7 520.504 4978.61 513.555 5011.25 513.555C5049.92 513.555 5081.04 518.993 5104.6 529.87C5128.78 540.142 5150.23 557.666 5168.96 582.441C5179.23 596.339 5188.3 614.467 5196.15 636.825C5204.01 658.579 5207.93 688.792 5207.93 727.465V855.267C5207.93 880.042 5208.54 899.681 5209.75 914.183C5211.56 928.082 5214.88 938.958 5219.72 946.814C5225.16 954.065 5233.01 958.899 5243.28 961.316C5253.56 963.733 5267.45 965.546 5284.98 966.755V1003.01H5001.27V966.755C5019.4 966.15 5033.6 964.64 5043.88 962.223C5054.75 959.201 5062.91 954.065 5068.35 946.814C5073.79 939.563 5077.41 929.29 5079.23 915.996C5081.04 902.098 5081.94 883.97 5081.94 861.612V738.342C5081.94 707.524 5080.13 681.541 5076.51 660.391C5072.88 639.242 5066.84 622.323 5058.38 609.633C5050.52 596.339 5039.95 586.973 5026.65 581.535C5013.36 575.492 4996.74 572.471 4976.8 572.471C4957.47 572.471 4940.85 577.909 4926.95 588.786C4913.05 599.663 4900.97 614.769 4890.69 634.106C4885.26 644.983 4880.42 659.183 4876.19 676.707C4872.57 693.626 4870.75 711.452 4870.75 730.184V855.267Z" fill="#F68227"/>
<path d="M5373.41 1003.01H5345.31V838.046H5383.38C5393.65 881.553 5408.46 913.277 5427.79 933.218C5447.13 953.159 5472.21 963.129 5503.02 963.129C5525.38 963.129 5542.6 958.597 5554.69 949.533C5567.38 939.865 5573.72 926.873 5573.72 910.558C5573.72 893.638 5566.17 877.323 5551.06 861.612C5535.96 845.297 5511.48 828.075 5477.64 809.947C5431.72 785.172 5398.79 760.7 5378.85 736.529C5358.91 711.754 5348.94 683.958 5348.94 653.14C5348.94 633.199 5352.56 614.769 5359.81 597.85C5367.67 580.326 5377.94 565.219 5390.63 552.53C5403.92 539.84 5419.63 530.172 5437.76 523.525C5455.89 516.274 5475.53 512.648 5496.68 512.648C5515.41 512.648 5533.84 515.367 5551.97 520.806C5570.7 526.244 5587.02 533.798 5600.92 543.466L5617.23 521.712H5640.8V658.579H5605.45C5591.55 624.135 5577.05 599.36 5561.94 584.254C5547.44 569.147 5529.61 561.594 5508.46 561.594C5491.54 561.594 5477.95 566.126 5467.67 575.19C5458.01 584.254 5453.17 596.339 5453.17 611.446C5453.17 628.365 5460.42 644.378 5474.93 659.485C5490.03 674.592 5514.81 691.209 5549.25 709.337C5573.42 722.631 5594.27 735.623 5611.79 748.312C5629.32 761.002 5643.52 773.994 5654.39 787.287C5665.27 799.977 5673.12 813.573 5677.96 828.075C5683.4 841.974 5686.12 857.08 5686.12 873.395C5686.12 894.545 5682.19 913.579 5674.33 930.499C5666.48 947.418 5655.3 961.92 5640.8 974.006C5626.29 986.091 5608.77 995.457 5588.23 1002.1C5568.28 1008.75 5545.93 1012.07 5521.15 1012.07C5495.17 1012.07 5471 1008.75 5448.64 1002.1C5426.28 994.853 5407.85 984.58 5393.35 971.287L5373.41 1003.01Z" fill="#F68227"/>
<path d="M6208.04 918.715C6153.05 980.955 6084.47 1012.07 6002.29 1012.07C5964.82 1012.07 5930.68 1006.33 5899.86 994.853C5869.65 982.768 5843.67 966.15 5821.91 945.001C5800.16 923.247 5783.24 897.566 5771.16 867.957C5759.07 838.348 5753.03 805.415 5753.03 769.159C5753.03 731.695 5759.37 697.554 5772.06 666.736C5784.75 635.314 5802.58 608.424 5825.54 586.067C5849.11 563.104 5876.6 545.279 5908.02 532.589C5940.05 519.899 5975.1 513.555 6013.16 513.555C6077.22 513.555 6127.07 530.776 6162.72 565.219C6198.37 599.663 6216.2 648.004 6216.2 710.243C6216.2 719.912 6214.69 725.954 6211.67 728.371C6208.64 730.184 6200.18 731.091 6186.29 731.091H5894.43C5892.01 736.529 5890.8 746.499 5890.8 761.002C5890.8 820.22 5903.49 867.051 5928.87 901.494C5954.85 935.937 5989.9 953.159 6034.01 953.159C6059.39 953.159 6084.47 947.418 6109.24 935.937C6134.62 924.456 6159.09 908.141 6182.66 886.991L6208.04 918.715ZM6032.2 680.332C6056.37 680.332 6071.78 679.124 6078.42 676.707C6085.68 673.685 6089.3 667.038 6089.3 656.766C6089.3 630.178 6081.75 608.424 6066.64 591.505C6051.53 574.586 6032.5 566.126 6009.54 566.126C5983.56 566.126 5960.29 577.003 5939.75 598.756C5919.8 619.906 5906.81 647.098 5900.77 680.332H6032.2Z" fill="#F68227"/>
</svg>
